# xmcd CD database file
#
# Track frame offsets:
#	150
#	25544
#	49209
#
# Disc length: 994 seconds
#
# Revision: 0
# Processed by: cddbd v1.5.1PL2 Copyright (c) Steve Scherf et al.
# Submitted via: CDex 1.51
#
DISCID=1a03e003
DTITLE=ＡＹＵＭＩ featuring Dohzi-T and DJ Bass - Noting From Nothing
DYEAR=1995
DGENRE=JPop
TTITLE0=Noting From Nothing
TTITLE1=Paper Doll
TTITLE2=Noting From Nothing
EXTD=YEAR: 1995
EXTT0=
EXTT1=
EXTT2=
PLAYORDER=
